<svg aria-hidden="true" style="position: absolute; width: 0; height: 0; overflow: hidden;" version="1.1" xmlns="http://www.w3.org/2000/svg" xmlns:xlink="http://www.w3.org/1999/xlink">
<defs>
<symbol id="icon-skyrim" viewBox="0 0 23 32">
<path d="M11.517 29.597c-0.058-0.128-0.286-0.629-0.507-1.112-0.87-1.903-0.907-2.008-0.784-2.245 0.036-0.070 0.212-0.346 0.391-0.614 0.4-0.597 0.448-0.691 0.448-0.856 0-0.078-0.091-0.338-0.227-0.647s-0.235-0.592-0.247-0.704c-0.019-0.174-0.003-0.222 0.213-0.654 0.128-0.256 0.361-0.693 0.517-0.971 0.406-0.721 0.453-0.85 0.454-1.238 0-0.177-0.025-0.471-0.056-0.654-0.090-0.523-0.308-1.32-0.428-1.565-0.227-0.464-0.619-0.854-1.127-1.121-0.137-0.072-0.256-0.131-0.266-0.131s-0.016 0.223-0.013 0.495c0.005 0.492-0.031 0.85-0.084 0.85-0.015 0-0.049-0.104-0.075-0.232-0.122-0.592-0.473-1.053-0.995-1.307l-0.299-0.145-0.025 0.646c-0.015 0.391-0.063 0.887-0.121 1.257-0.053 0.336-0.097 0.656-0.097 0.711 0 0.13 0.281 0.608 0.503 0.855 0.211 0.234 0.682 0.558 0.862 0.592l0.13 0.024v2.208c0 1.215-0.014 2.192-0.032 2.173s-0.39-0.818-0.827-1.773c-0.438-0.956-1.132-2.469-1.542-3.364s-0.927-2.021-1.148-2.504c-0.787-1.721-1.416-3.089-1.605-3.491l-0.191-0.408 1.257-2.732c0.691-1.502 1.354-2.942 1.473-3.199 0.518-1.121 1.8-3.906 2.175-4.726 0.521-1.139 0.472-1.051 0.543-0.98 0.044 0.044 0.062 0.17 0.074 0.518 0.019 0.531 0.047 0.645 0.228 0.928 0.117 0.184 0.231 0.467 0.231 0.575 0 0.022-0.071-0.038-0.159-0.133s-0.218-0.192-0.29-0.216c-0.12-0.039-0.138-0.034-0.211 0.050-0.156 0.18-0.477 1.294-0.997 3.461-0.429 1.788-0.512 2.298-0.413 2.538 0.029 0.070 0.197 0.277 0.372 0.459 0.312 0.323 0.428 0.51 0.483 0.777l0.027 0.131-0.238-0.228c-0.131-0.125-0.295-0.257-0.364-0.293-0.18-0.093-0.482-0.117-0.641-0.050l-0.131 0.055-0.177 0.912c-0.307 1.581-0.338 1.964-0.179 2.225 0.148 0.244 0.608 0.357 1.124 0.278 0.396-0.061 0.533-0.136 0.577-0.315 0.030-0.121 0.022-0.169-0.052-0.308-0.083-0.156-0.28-0.362-0.488-0.512-0.093-0.067-0.093-0.067 0.124-0.046 0.572 0.055 1.162 0.617 1.39 1.321 0.035 0.109 0.073 0.19 0.083 0.18 0.046-0.046-0.073-0.649-0.175-0.892-0.062-0.146-0.107-0.271-0.101-0.277 0.020-0.020 0.304 0.183 0.448 0.319 0.078 0.074 0.178 0.193 0.222 0.263 0.131 0.21 0.114 0.079-0.050-0.393-0.335-0.965-0.345-1.011-0.349-1.473-0.003-0.41 0.002-0.442 0.117-0.683 0.23-0.485 0.622-0.779 1.431-1.073 0.561-0.204 0.819-0.344 1.047-0.569 0.258-0.254 0.315-0.373 0.314-0.665 0-0.289-0.087-0.481-0.308-0.68-0.338-0.306-0.758-0.461-1.164-0.432-0.297 0.021-0.504 0.109-0.816 0.345-0.283 0.214-0.429 0.417-0.515 0.714-0.076 0.266-0.075 0.264-0.15 0.202-0.097-0.081-0.198-0.311-0.225-0.514-0.023-0.175-0.016-0.202 0.090-0.336 0.159-0.2 0.193-0.307 0.193-0.604 0-0.233 0.018-0.293 0.196-0.66l0.196-0.404-0.011-0.606c-0.011-0.561-0.005-0.617 0.070-0.767 0.101-0.199 0.224-0.377 0.246-0.355 0.009 0.009-0.003 0.126-0.026 0.26-0.035 0.2-0.032 0.283 0.015 0.469 0.091 0.355 0.278 0.811 0.378 0.918 0.089 0.096 0.099 0.098 0.593 0.098 0.614 0 0.929-0.078 1.093-0.272l0.102-0.121-0.027 0.112c-0.032 0.131-0.129 0.243-0.317 0.365-0.527 0.342-0.67 0.449-0.713 0.53-0.072 0.135-0.013 0.185 0.361 0.304 0.521 0.166 0.902 0.466 1.103 0.87 0.074 0.148 0.086 0.231 0.086 0.566 0 0.351-0.011 0.416-0.104 0.614-0.217 0.464-0.434 0.649-1.301 1.11-0.666 0.354-0.744 0.409-0.862 0.612-0.066 0.114-0.087 0.204-0.085 0.378 0.002 0.273 0.022 0.309 0.558 1.044 0.533 0.731 0.622 0.903 0.832 1.606l0.033 0.112 0.049-0.149c0.1-0.308 0.261-0.57 0.46-0.751 0.23-0.208 0.464-0.358 0.427-0.273-0.169 0.391-0.247 0.651-0.266 0.893-0.024 0.303-0.008 0.293 0.129-0.084 0.146-0.401 0.452-0.775 0.823-1.008 0.129-0.081 0.469-0.18 0.611-0.177l0.115 0.002-0.093 0.063c-0.191 0.129-0.42 0.363-0.489 0.499-0.151 0.296-0.069 0.482 0.257 0.58 0.256 0.076 0.863 0.088 1.057 0.020 0.189-0.066 0.358-0.257 0.414-0.467 0.058-0.217 0.011-0.577-0.256-1.985l-0.177-0.93-0.122-0.051c-0.313-0.131-0.637-0.025-1.009 0.332l-0.245 0.234 0.027-0.131c0.055-0.266 0.169-0.449 0.496-0.792 0.409-0.429 0.441-0.507 0.382-0.934-0.061-0.445-0.266-1.387-0.561-2.572-0.474-1.908-0.733-2.78-0.872-2.935-0.074-0.083-0.092-0.087-0.23-0.048-0.108 0.030-0.184 0.088-0.274 0.207-0.069 0.091-0.133 0.158-0.143 0.148-0.040-0.040 0.079-0.355 0.238-0.629l0.17-0.293 0.037-0.533c0.034-0.497 0.075-0.671 0.143-0.6 0.015 0.016 0.162 0.324 0.326 0.684s0.643 1.402 1.065 2.317c1.275 2.766 3.806 8.266 3.895 8.465l0.084 0.187-1.192 2.597c-0.655 1.429-1.35 2.942-1.544 3.364-1.572 3.421-2.538 5.524-2.564 5.587-0.017 0.041-0.032-0.928-0.033-2.154l-0.002-2.229 0.126-0.024c0.179-0.034 0.564-0.293 0.807-0.543 0.114-0.117 0.292-0.357 0.397-0.534l0.19-0.322-0.050-0.311c-0.144-0.902-0.172-1.148-0.194-1.725l-0.024-0.629-0.302 0.151c-0.528 0.264-0.87 0.715-0.992 1.304-0.026 0.127-0.059 0.232-0.072 0.232-0.062 0-0.12-0.579-0.095-0.956l0.025-0.393-0.12 0.062c-0.172 0.089-0.495 0.423-0.591 0.612-0.207 0.406-0.231 0.718-0.133 1.736 0.126 1.309 0.119 1.335-0.652 2.526-0.608 0.938-0.759 1.216-0.762 1.397-0.001 0.085 0.071 0.407 0.16 0.715s0.162 0.62 0.163 0.693c0 0.15-0.057 0.249-0.534 0.932-0.508 0.727-0.518 0.76-0.336 1.121 0.142 0.282 0.308 0.47 0.498 0.567 0.129 0.066 0.201 0.074 0.508 0.061 0.414-0.018 0.606-0.097 1.005-0.414l0.236-0.187-0.055 0.127c-0.099 0.229-0.986 2.213-1.122 2.509-0.073 0.159-0.143 0.29-0.155 0.29s-0.070-0.105-0.128-0.234z"></path>
</symbol>
</defs>
</svg>
